# xmcd
#
# Track frame offsets:
#	150
#	17437
#	32157
#	54390
#	73770
#	91682
#	110767
#	126510
#	149395
#	161577
#
# Disc length: 2538 seconds
#
# Revision: 2
# Processed by: cddbd v1.5.2PL0 Copyright (c) Steve Scherf et al.
# Submitted via: EZCDAudioConverter 7.1.2.1
#
DISCID=8709e80a
DTITLE=Rufus
DYEAR=1973
DGENRE=R&B - Funk 
TTITLE0=Slip N' Slide
TTITLE1=Keep It Comin'
TTITLE2=There's No Tellin'
TTITLE3=Maybe Your Baby
TTITLE4=I Finally Found You
TTITLE5=Feel Good
TTITLE6=Satistied
TTITLE7=Haulin' Coal
TTITLE8=Whoever's Thrilling You (Is Killing Me)
TTITLE9=Love The One You're With - Sit Yourself Down
EXTD=
EXTT0=
EXTT1=
EXTT2=
EXTT3=
EXTT4=
EXTT5=
EXTT6=
EXTT7=
EXTT8=
EXTT9=
PLAYORDER=
